<?xml version="1.0" standalone="no"?>
<!DOCTYPE svg PUBLIC "-//W3C//DTD SVG 20010904//EN"
 "http://www.w3.org/TR/2001/REC-SVG-20010904/DTD/svg10.dtd">
<svg version="1.0" xmlns="http://www.w3.org/2000/svg"
 width="120.000000pt" height="120.000000pt" viewBox="0 0 120.000000 120.000000"
 preserveAspectRatio="xMidYMid meet">

<g transform="translate(0.000000,120.000000) scale(0.100000,-0.100000)"
fill="#000000" stroke="none">
<path d="M437 712 c-59 -59 -107 -112 -107 -117 0 -14 223 -235 237 -235 34 0
13 35 -68 116 l-89 89 227 5 c207 5 228 7 231 23 3 16 -13 17 -222 17 -124 0
-226 3 -226 7 0 4 39 46 86 94 47 49 83 93 79 99 -15 24 -47 4 -148 -98z"/>
</g>
</svg>
